<svg aria-roledescription="er" role="graphics-document document" viewBox="-12.602684020996094 0 794.6234130859375 1127" style="max-width: 3840px; background-color: white; max-height: 3840px;" xmlns:xlink="http://www.w3.org/1999/xlink" xmlns="http://www.w3.org/2000/svg" width="100%" id="my-svg"><style>#my-svg{font-family:arial,sans-serif;font-size:14px;fill:#333;}@keyframes edge-animation-frame{from{stroke-dashoffset:0;}}@keyframes dash{to{stroke-dashoffset:0;}}#my-svg .edge-animation-slow{stroke-dasharray:9,5!important;stroke-dashoffset:900;animation:dash 50s linear infinite;stroke-linecap:round;}#my-svg .edge-animation-fast{stroke-dasharray:9,5!important;stroke-dashoffset:900;animation:dash 20s linear infinite;stroke-linecap:round;}#my-svg .error-icon{fill:#ffffff;}#my-svg .error-text{fill:#000000;stroke:#000000;}#my-svg .edge-thickness-normal{stroke-width:2px;}#my-svg .edge-thickness-thick{stroke-width:3.5px;}#my-svg .edge-pattern-solid{stroke-dasharray:0;}#my-svg .edge-thickness-invisible{stroke-width:0;fill:none;}#my-svg .edge-pattern-dashed{stroke-dasharray:3;}#my-svg .edge-pattern-dotted{stroke-dasharray:2;}#my-svg .marker{fill:#000000;stroke:#000000;}#my-svg .marker.cross{stroke:#000000;}#my-svg svg{font-family:arial,sans-serif;font-size:14px;}#my-svg p{margin:0;}#my-svg .entityBox{fill:#ffffff;stroke:#000000;}#my-svg .attributeBoxOdd{fill:#ffffff;stroke:#000000;}#my-svg .attributeBoxEven{fill:#f2f2f2;stroke:#000000;}#my-svg .relationshipLabelBox{fill:#ffffff;opacity:0.7;background-color:#ffffff;}#my-svg .relationshipLabelBox rect{opacity:0.5;}#my-svg .relationshipLine{stroke:#000000;}#my-svg .entityTitleText{text-anchor:middle;font-size:18px;fill:#333;}#my-svg #MD_PARENT_START{fill:#f5f5f5!important;stroke:#000000!important;stroke-width:1;}#my-svg #MD_PARENT_END{fill:#f5f5f5!important;stroke:#000000!important;stroke-width:1;}#my-svg .node .neo-node{stroke:#000000;}#my-svg [data-look="neo"].node rect,#my-svg [data-look="neo"].cluster rect,#my-svg [data-look="neo"].node polygon{stroke:url(#my-svg-gradient);filter:drop-shadow( 0px 1px 2px rgba(0, 0, 0, 0.25));}#my-svg [data-look="neo"].node path{stroke:url(#my-svg-gradient);}#my-svg [data-look="neo"].node .outer-path{filter:drop-shadow( 0px 1px 2px rgba(0, 0, 0, 0.25));}#my-svg [data-look="neo"].node .neo-line path{stroke:hsl(0, 0%, 70%);filter:none;}#my-svg [data-look="neo"].node circle{stroke:url(#my-svg-gradient);filter:drop-shadow( 0px 1px 2px rgba(0, 0, 0, 0.25));}#my-svg [data-look="neo"].node circle .state-start{fill:#000000;}#my-svg [data-look="neo"].statediagram-cluster rect{fill:#ffffff;stroke:url(#my-svg-gradient);stroke-width:1px;}#my-svg [data-look="neo"].icon-shape .icon{fill:url(#my-svg-gradient);filter:drop-shadow( 0px 1px 2px rgba(0, 0, 0, 0.25));}#my-svg [data-look="neo"].icon-shape .icon-neo path{stroke:url(#my-svg-gradient);filter:drop-shadow( 0px 1px 2px rgba(0, 0, 0, 0.25));}#my-svg :root{--mermaid-font-family:"trebuchet ms",verdana,arial,sans-serif;}</style><g/><defs><marker orient="auto" markerHeight="240" markerWidth="190" refY="7" refX="0" id="MD_PARENT_START"><path d="M 18,7 L9,13 L1,7 L9,1 Z"/></marker></defs><defs><marker orient="auto" markerHeight="28" markerWidth="20" refY="7" refX="19" id="MD_PARENT_END"><path d="M 18,7 L9,13 L1,7 L9,1 Z"/></marker></defs><defs><marker orient="auto" markerHeight="18" markerWidth="18" refY="9" refX="0" id="ONLY_ONE_START"><path d="M9,0 L9,18 M15,0 L15,18" fill="none" stroke="gray"/></marker></defs><defs><marker orient="auto" markerHeight="18" markerWidth="18" refY="9" refX="18" id="ONLY_ONE_END"><path d="M3,0 L3,18 M9,0 L9,18" fill="none" stroke="gray"/></marker></defs><defs><marker orient="auto" markerHeight="18" markerWidth="30" refY="9" refX="0" id="ZERO_OR_ONE_START"><circle r="6" cy="9" cx="21" fill="white" stroke="gray"/><path d="M9,0 L9,18" fill="none" stroke="gray"/></marker></defs><defs><marker orient="auto" markerHeight="18" markerWidth="30" refY="9" refX="30" id="ZERO_OR_ONE_END"><circle r="6" cy="9" cx="9" fill="white" stroke="gray"/><path d="M21,0 L21,18" fill="none" stroke="gray"/></marker></defs><defs><marker orient="auto" markerHeight="36" markerWidth="45" refY="18" refX="18" id="ONE_OR_MORE_START"><path d="M0,18 Q 18,0 36,18 Q 18,36 0,18 M42,9 L42,27" fill="none" stroke="gray"/></marker></defs><defs><marker orient="auto" markerHeight="36" markerWidth="45" refY="18" refX="27" id="ONE_OR_MORE_END"><path d="M3,9 L3,27 M9,18 Q27,0 45,18 Q27,36 9,18" fill="none" stroke="gray"/></marker></defs><defs><marker orient="auto" markerHeight="36" markerWidth="57" refY="18" refX="18" id="ZERO_OR_MORE_START"><circle r="6" cy="18" cx="48" fill="white" stroke="gray"/><path d="M0,18 Q18,0 36,18 Q18,36 0,18" fill="none" stroke="gray"/></marker></defs><defs><marker orient="auto" markerHeight="36" markerWidth="57" refY="18" refX="39" id="ZERO_OR_MORE_END"><circle r="6" cy="18" cx="9" fill="white" stroke="gray"/><path d="M21,18 Q39,0 57,18 Q39,36 21,18" fill="none" stroke="gray"/></marker></defs><path style="stroke: gray; fill: none;" marker-start="url(#ONLY_ONE_START)" marker-end="url(#ZERO_OR_MORE_END)" d="M125.018,348.927L144.551,362.106C164.084,375.285,203.15,401.642,244.115,428.207C285.081,454.772,327.946,481.544,349.379,494.93L370.811,508.316" class="er relationshipLine"/><path style="stroke: gray; fill: none;" marker-start="url(#ONLY_ONE_START)" marker-end="url(#ZERO_OR_MORE_END)" d="M55.366,378L53.151,386.333C50.936,394.667,46.506,411.333,44.292,440.5C42.077,469.667,42.077,511.333,42.077,553C42.077,594.667,42.077,636.333,42.077,679.75C42.077,723.167,42.077,768.333,42.077,813.5C42.077,858.667,42.077,903.833,60.311,937.566C78.546,971.298,115.015,993.596,133.249,1004.745L151.484,1015.894" class="er relationshipLine"/><path style="stroke: gray; fill: none;" marker-start="url(#ONLY_ONE_START)" marker-end="url(#ZERO_OR_MORE_END)" d="M206.444,617.5L206.444,627.583C206.444,637.667,206.444,657.833,212.173,676.25C217.901,694.667,229.359,711.333,235.088,719.667L240.816,728" class="er relationshipLine"/><path style="stroke: gray; fill: none;" marker-start="url(#ONLY_ONE_START)" marker-end="url(#ZERO_OR_MORE_END)" d="M299.593,899L299.593,907.333C299.593,915.667,299.593,932.333,292.588,949C285.583,965.667,271.573,982.333,264.568,990.667L257.563,999" class="er relationshipLine"/><path style="stroke: gray; fill: none;" marker-start="url(#ONE_OR_MORE_START)" marker-end="url(#ONLY_ONE_END)" d="M442.354,628L442.354,636.333C442.354,644.667,442.354,661.333,431.035,680.411C419.715,699.488,397.076,720.975,385.756,731.719L374.437,742.463" class="er relationshipLine"/><path style="stroke: gray; fill: none;" marker-start="url(#ONLY_ONE_START)" marker-end="url(#ZERO_OR_MORE_END)" d="M412.31,378L412.31,386.333C412.31,394.667,412.31,411.333,414.313,428C416.316,444.667,420.322,461.333,422.325,469.667L424.328,478" class="er relationshipLine"/><path style="stroke: gray; fill: none;" marker-start="url(#ONLY_ONE_START)" marker-end="url(#ZERO_OR_MORE_END)" d="M681.005,378L681.005,386.333C681.005,394.667,681.005,411.333,653.154,434.255C625.303,457.176,569.6,486.351,541.749,500.939L513.898,515.527" class="er relationshipLine"/><path style="stroke: gray; fill: none;" marker-start="url(#ONLY_ONE_START)" marker-end="url(#ZERO_OR_MORE_END)" d="M72.509,149L72.509,157.333C72.509,165.667,72.509,182.333,72.509,199C72.509,215.667,72.509,232.333,72.509,240.667L72.509,249" class="er relationshipLine"/><g transform="translate(20,249 )" id="entity-APPRENANT-4a562f80-bd28-583e-86ff-5eac07539269"><rect height="129" width="105.017578125" y="0" x="0" class="er entityBox"/><text style="dominant-baseline: middle; text-anchor: middle; font-size: 12px;" transform="translate(52.5087890625,12)" y="0" x="0" id="text-entity-APPRENANT-4a562f80-bd28-583e-86ff-5eac07539269" class="er entityLabel">APPRENANT</text><rect height="21" width="42.425445556640625" y="24" x="0" class="er attributeBoxOdd"/><text style="dominant-baseline: middle; font-size: 10.2px;" transform="translate(5,34.5)" y="0" x="0" id="text-entity-APPRENANT-4a562f80-bd28-583e-86ff-5eac07539269-attr-1-type" class="er entityLabel">string</text><rect height="21" width="62.592132568359375" y="24" x="42.425445556640625" class="er attributeBoxOdd"/><text style="dominant-baseline: middle; font-size: 10.2px;" transform="translate(47.425445556640625,34.5)" y="0" x="0" id="text-entity-APPRENANT-4a562f80-bd28-583e-86ff-5eac07539269-attr-1-name" class="er entityLabel">id</text><rect height="21" width="42.425445556640625" y="45" x="0" class="er attributeBoxEven"/><text style="dominant-baseline: middle; font-size: 10.2px;" transform="translate(5,55.5)" y="0" x="0" id="text-entity-APPRENANT-4a562f80-bd28-583e-86ff-5eac07539269-attr-2-type" class="er entityLabel">string</text><rect height="21" width="62.592132568359375" y="45" x="42.425445556640625" class="er attributeBoxEven"/><text style="dominant-baseline: middle; font-size: 10.2px;" transform="translate(47.425445556640625,55.5)" y="0" x="0" id="text-entity-APPRENANT-4a562f80-bd28-583e-86ff-5eac07539269-attr-2-name" class="er entityLabel">nom</text><rect height="21" width="42.425445556640625" y="66" x="0" class="er attributeBoxOdd"/><text style="dominant-baseline: middle; font-size: 10.2px;" transform="translate(5,76.5)" y="0" x="0" id="text-entity-APPRENANT-4a562f80-bd28-583e-86ff-5eac07539269-attr-3-type" class="er entityLabel">string</text><rect height="21" width="62.592132568359375" y="66" x="42.425445556640625" class="er attributeBoxOdd"/><text style="dominant-baseline: middle; font-size: 10.2px;" transform="translate(47.425445556640625,76.5)" y="0" x="0" id="text-entity-APPRENANT-4a562f80-bd28-583e-86ff-5eac07539269-attr-3-name" class="er entityLabel">prenom</text><rect height="21" width="42.425445556640625" y="87" x="0" class="er attributeBoxEven"/><text style="dominant-baseline: middle; font-size: 10.2px;" transform="translate(5,97.5)" y="0" x="0" id="text-entity-APPRENANT-4a562f80-bd28-583e-86ff-5eac07539269-attr-4-type" class="er entityLabel">string</text><rect height="21" width="62.592132568359375" y="87" x="42.425445556640625" class="er attributeBoxEven"/><text style="dominant-baseline: middle; font-size: 10.2px;" transform="translate(47.425445556640625,97.5)" y="0" x="0" id="text-entity-APPRENANT-4a562f80-bd28-583e-86ff-5eac07539269-attr-4-name" class="er entityLabel">email</text><rect height="21" width="42.425445556640625" y="108" x="0" class="er attributeBoxOdd"/><text style="dominant-baseline: middle; font-size: 10.2px;" transform="translate(5,118.5)" y="0" x="0" id="text-entity-APPRENANT-4a562f80-bd28-583e-86ff-5eac07539269-attr-5-type" class="er entityLabel">string</text><rect height="21" width="62.592132568359375" y="108" x="42.425445556640625" class="er attributeBoxOdd"/><text style="dominant-baseline: middle; font-size: 10.2px;" transform="translate(47.425445556640625,118.5)" y="0" x="0" id="text-entity-APPRENANT-4a562f80-bd28-583e-86ff-5eac07539269-attr-5-name" class="er entityLabel">telephone</text></g><g transform="translate(370.81116485595703,478 )" id="entity-STAGE-b3b3ae2f-3286-55e2-8698-6897421b790f"><rect height="150" width="143.08645629882812" y="0" x="0" class="er entityBox"/><text style="dominant-baseline: middle; text-anchor: middle; font-size: 12px;" transform="translate(71.54322814941406,12)" y="0" x="0" id="text-entity-STAGE-b3b3ae2f-3286-55e2-8698-6897421b790f" class="er entityLabel">STAGE</text><rect height="21" width="34.921875" y="24" x="0" class="er attributeBoxOdd"/><text style="dominant-baseline: middle; font-size: 10.2px;" transform="translate(5,34.5)" y="0" x="0" id="text-entity-STAGE-b3b3ae2f-3286-55e2-8698-6897421b790f-attr-1-type" class="er entityLabel">string</text><rect height="21" width="108.16458129882812" y="24" x="34.921875" class="er attributeBoxOdd"/><text style="dominant-baseline: middle; font-size: 10.2px;" transform="translate(39.921875,34.5)" y="0" x="0" id="text-entity-STAGE-b3b3ae2f-3286-55e2-8698-6897421b790f-attr-1-name" class="er entityLabel">id</text><rect height="21" width="34.921875" y="45" x="0" class="er attributeBoxEven"/><text style="dominant-baseline: middle; font-size: 10.2px;" transform="translate(5,55.5)" y="0" x="0" id="text-entity-STAGE-b3b3ae2f-3286-55e2-8698-6897421b790f-attr-2-type" class="er entityLabel">date</text><rect height="21" width="108.16458129882812" y="45" x="34.921875" class="er attributeBoxEven"/><text style="dominant-baseline: middle; font-size: 10.2px;" transform="translate(39.921875,55.5)" y="0" x="0" id="text-entity-STAGE-b3b3ae2f-3286-55e2-8698-6897421b790f-attr-2-name" class="er entityLabel">date_debut</text><rect height="21" width="34.921875" y="66" x="0" class="er attributeBoxOdd"/><text style="dominant-baseline: middle; font-size: 10.2px;" transform="translate(5,76.5)" y="0" x="0" id="text-entity-STAGE-b3b3ae2f-3286-55e2-8698-6897421b790f-attr-3-type" class="er entityLabel">date</text><rect height="21" width="108.16458129882812" y="66" x="34.921875" class="er attributeBoxOdd"/><text style="dominant-baseline: middle; font-size: 10.2px;" transform="translate(39.921875,76.5)" y="0" x="0" id="text-entity-STAGE-b3b3ae2f-3286-55e2-8698-6897421b790f-attr-3-name" class="er entityLabel">date_fin</text><rect height="21" width="34.921875" y="87" x="0" class="er attributeBoxEven"/><text style="dominant-baseline: middle; font-size: 10.2px;" transform="translate(5,97.5)" y="0" x="0" id="text-entity-STAGE-b3b3ae2f-3286-55e2-8698-6897421b790f-attr-4-type" class="er entityLabel">string</text><rect height="21" width="108.16458129882812" y="87" x="34.921875" class="er attributeBoxEven"/><text style="dominant-baseline: middle; font-size: 10.2px;" transform="translate(39.921875,97.5)" y="0" x="0" id="text-entity-STAGE-b3b3ae2f-3286-55e2-8698-6897421b790f-attr-4-name" class="er entityLabel">evaluation_entreprise</text><rect height="21" width="34.921875" y="108" x="0" class="er attributeBoxOdd"/><text style="dominant-baseline: middle; font-size: 10.2px;" transform="translate(5,118.5)" y="0" x="0" id="text-entity-STAGE-b3b3ae2f-3286-55e2-8698-6897421b790f-attr-5-type" class="er entityLabel">string</text><rect height="21" width="108.16458129882812" y="108" x="34.921875" class="er attributeBoxOdd"/><text style="dominant-baseline: middle; font-size: 10.2px;" transform="translate(39.921875,118.5)" y="0" x="0" id="text-entity-STAGE-b3b3ae2f-3286-55e2-8698-6897421b790f-attr-5-name" class="er entityLabel">evaluation_apprenant</text><rect height="21" width="34.921875" y="129" x="0" class="er attributeBoxEven"/><text style="dominant-baseline: middle; font-size: 10.2px;" transform="translate(5,139.5)" y="0" x="0" id="text-entity-STAGE-b3b3ae2f-3286-55e2-8698-6897421b790f-attr-6-type" class="er entityLabel">string</text><rect height="21" width="108.16458129882812" y="129" x="34.921875" class="er attributeBoxEven"/><text style="dominant-baseline: middle; font-size: 10.2px;" transform="translate(39.921875,139.5)" y="0" x="0" id="text-entity-STAGE-b3b3ae2f-3286-55e2-8698-6897421b790f-attr-6-name" class="er entityLabel">rapport_url</text></g><g transform="translate(151.48352813720703,999 )" id="entity-CANDIDATURE-bb5f200e-9e6a-59dd-beb0-22559d4eb084"><rect height="108" width="121.375" y="0" x="0" class="er entityBox"/><text style="dominant-baseline: middle; text-anchor: middle; font-size: 12px;" transform="translate(60.6875,12)" y="0" x="0" id="text-entity-CANDIDATURE-bb5f200e-9e6a-59dd-beb0-22559d4eb084" class="er entityLabel">CANDIDATURE</text><rect height="21" width="34.921875" y="24" x="0" class="er attributeBoxOdd"/><text style="dominant-baseline: middle; font-size: 10.2px;" transform="translate(5,34.5)" y="0" x="0" id="text-entity-CANDIDATURE-bb5f200e-9e6a-59dd-beb0-22559d4eb084-attr-1-type" class="er entityLabel">string</text><rect height="21" width="86.453125" y="24" x="34.921875" class="er attributeBoxOdd"/><text style="dominant-baseline: middle; font-size: 10.2px;" transform="translate(39.921875,34.5)" y="0" x="0" id="text-entity-CANDIDATURE-bb5f200e-9e6a-59dd-beb0-22559d4eb084-attr-1-name" class="er entityLabel">id</text><rect height="21" width="34.921875" y="45" x="0" class="er attributeBoxEven"/><text style="dominant-baseline: middle; font-size: 10.2px;" transform="translate(5,55.5)" y="0" x="0" id="text-entity-CANDIDATURE-bb5f200e-9e6a-59dd-beb0-22559d4eb084-attr-2-type" class="er entityLabel">date</text><rect height="21" width="86.453125" y="45" x="34.921875" class="er attributeBoxEven"/><text style="dominant-baseline: middle; font-size: 10.2px;" transform="translate(39.921875,55.5)" y="0" x="0" id="text-entity-CANDIDATURE-bb5f200e-9e6a-59dd-beb0-22559d4eb084-attr-2-name" class="er entityLabel">date_soumission</text><rect height="21" width="34.921875" y="66" x="0" class="er attributeBoxOdd"/><text style="dominant-baseline: middle; font-size: 10.2px;" transform="translate(5,76.5)" y="0" x="0" id="text-entity-CANDIDATURE-bb5f200e-9e6a-59dd-beb0-22559d4eb084-attr-3-type" class="er entityLabel">string</text><rect height="21" width="86.453125" y="66" x="34.921875" class="er attributeBoxOdd"/><text style="dominant-baseline: middle; font-size: 10.2px;" transform="translate(39.921875,76.5)" y="0" x="0" id="text-entity-CANDIDATURE-bb5f200e-9e6a-59dd-beb0-22559d4eb084-attr-3-name" class="er entityLabel">statut</text><rect height="21" width="34.921875" y="87" x="0" class="er attributeBoxEven"/><text style="dominant-baseline: middle; font-size: 10.2px;" transform="translate(5,97.5)" y="0" x="0" id="text-entity-CANDIDATURE-bb5f200e-9e6a-59dd-beb0-22559d4eb084-attr-4-type" class="er entityLabel">string</text><rect height="21" width="86.453125" y="87" x="34.921875" class="er attributeBoxEven"/><text style="dominant-baseline: middle; font-size: 10.2px;" transform="translate(39.921875,97.5)" y="0" x="0" id="text-entity-CANDIDATURE-bb5f200e-9e6a-59dd-beb0-22559d4eb084-attr-4-name" class="er entityLabel">lettre_motivation</text></g><g transform="translate(152.55335235595703,488.5 )" id="entity-ENTREPRISE-053b354d-4c87-5fce-b633-ff68d569b2e6"><rect height="129" width="107.78125" y="0" x="0" class="er entityBox"/><text style="dominant-baseline: middle; text-anchor: middle; font-size: 12px;" transform="translate(53.890625,12)" y="0" x="0" id="text-entity-ENTREPRISE-053b354d-4c87-5fce-b633-ff68d569b2e6" class="er entityLabel">ENTREPRISE</text><rect height="21" width="34.921875" y="24" x="0" class="er attributeBoxOdd"/><text style="dominant-baseline: middle; font-size: 10.2px;" transform="translate(5,34.5)" y="0" x="0" id="text-entity-ENTREPRISE-053b354d-4c87-5fce-b633-ff68d569b2e6-attr-1-type" class="er entityLabel">string</text><rect height="21" width="72.859375" y="24" x="34.921875" class="er attributeBoxOdd"/><text style="dominant-baseline: middle; font-size: 10.2px;" transform="translate(39.921875,34.5)" y="0" x="0" id="text-entity-ENTREPRISE-053b354d-4c87-5fce-b633-ff68d569b2e6-attr-1-name" class="er entityLabel">id</text><rect height="21" width="34.921875" y="45" x="0" class="er attributeBoxEven"/><text style="dominant-baseline: middle; font-size: 10.2px;" transform="translate(5,55.5)" y="0" x="0" id="text-entity-ENTREPRISE-053b354d-4c87-5fce-b633-ff68d569b2e6-attr-2-type" class="er entityLabel">string</text><rect height="21" width="72.859375" y="45" x="34.921875" class="er attributeBoxEven"/><text style="dominant-baseline: middle; font-size: 10.2px;" transform="translate(39.921875,55.5)" y="0" x="0" id="text-entity-ENTREPRISE-053b354d-4c87-5fce-b633-ff68d569b2e6-attr-2-name" class="er entityLabel">nom</text><rect height="21" width="34.921875" y="66" x="0" class="er attributeBoxOdd"/><text style="dominant-baseline: middle; font-size: 10.2px;" transform="translate(5,76.5)" y="0" x="0" id="text-entity-ENTREPRISE-053b354d-4c87-5fce-b633-ff68d569b2e6-attr-3-type" class="er entityLabel">string</text><rect height="21" width="72.859375" y="66" x="34.921875" class="er attributeBoxOdd"/><text style="dominant-baseline: middle; font-size: 10.2px;" transform="translate(39.921875,76.5)" y="0" x="0" id="text-entity-ENTREPRISE-053b354d-4c87-5fce-b633-ff68d569b2e6-attr-3-name" class="er entityLabel">adresse</text><rect height="21" width="34.921875" y="87" x="0" class="er attributeBoxEven"/><text style="dominant-baseline: middle; font-size: 10.2px;" transform="translate(5,97.5)" y="0" x="0" id="text-entity-ENTREPRISE-053b354d-4c87-5fce-b633-ff68d569b2e6-attr-4-type" class="er entityLabel">string</text><rect height="21" width="72.859375" y="87" x="34.921875" class="er attributeBoxEven"/><text style="dominant-baseline: middle; font-size: 10.2px;" transform="translate(39.921875,97.5)" y="0" x="0" id="text-entity-ENTREPRISE-053b354d-4c87-5fce-b633-ff68d569b2e6-attr-4-name" class="er entityLabel">secteur</text><rect height="21" width="34.921875" y="108" x="0" class="er attributeBoxOdd"/><text style="dominant-baseline: middle; font-size: 10.2px;" transform="translate(5,118.5)" y="0" x="0" id="text-entity-ENTREPRISE-053b354d-4c87-5fce-b633-ff68d569b2e6-attr-5-type" class="er entityLabel">string</text><rect height="21" width="72.859375" y="108" x="34.921875" class="er attributeBoxOdd"/><text style="dominant-baseline: middle; font-size: 10.2px;" transform="translate(39.921875,118.5)" y="0" x="0" id="text-entity-ENTREPRISE-053b354d-4c87-5fce-b633-ff68d569b2e6-attr-5-name" class="er entityLabel">contact_email</text></g><g transform="translate(224.74915313720703,728 )" id="entity-OFFRESTAGE-6ffacc2d-7f2b-5c70-be5a-0f5749bab73e"><rect height="171" width="149.6875" y="0" x="0" class="er entityBox"/><text style="dominant-baseline: middle; text-anchor: middle; font-size: 12px;" transform="translate(74.84375,12)" y="0" x="0" id="text-entity-OFFRESTAGE-6ffacc2d-7f2b-5c70-be5a-0f5749bab73e" class="er entityLabel">OFFRE_STAGE</text><rect height="21" width="34.921875" y="24" x="0" class="er attributeBoxOdd"/><text style="dominant-baseline: middle; font-size: 10.2px;" transform="translate(5,34.5)" y="0" x="0" id="text-entity-OFFRESTAGE-6ffacc2d-7f2b-5c70-be5a-0f5749bab73e-attr-1-type" class="er entityLabel">string</text><rect height="21" width="114.765625" y="24" x="34.921875" class="er attributeBoxOdd"/><text style="dominant-baseline: middle; font-size: 10.2px;" transform="translate(39.921875,34.5)" y="0" x="0" id="text-entity-OFFRESTAGE-6ffacc2d-7f2b-5c70-be5a-0f5749bab73e-attr-1-name" class="er entityLabel">id</text><rect height="21" width="34.921875" y="45" x="0" class="er attributeBoxEven"/><text style="dominant-baseline: middle; font-size: 10.2px;" transform="translate(5,55.5)" y="0" x="0" id="text-entity-OFFRESTAGE-6ffacc2d-7f2b-5c70-be5a-0f5749bab73e-attr-2-type" class="er entityLabel">string</text><rect height="21" width="114.765625" y="45" x="34.921875" class="er attributeBoxEven"/><text style="dominant-baseline: middle; font-size: 10.2px;" transform="translate(39.921875,55.5)" y="0" x="0" id="text-entity-OFFRESTAGE-6ffacc2d-7f2b-5c70-be5a-0f5749bab73e-attr-2-name" class="er entityLabel">titre</text><rect height="21" width="34.921875" y="66" x="0" class="er attributeBoxOdd"/><text style="dominant-baseline: middle; font-size: 10.2px;" transform="translate(5,76.5)" y="0" x="0" id="text-entity-OFFRESTAGE-6ffacc2d-7f2b-5c70-be5a-0f5749bab73e-attr-3-type" class="er entityLabel">string</text><rect height="21" width="114.765625" y="66" x="34.921875" class="er attributeBoxOdd"/><text style="dominant-baseline: middle; font-size: 10.2px;" transform="translate(39.921875,76.5)" y="0" x="0" id="text-entity-OFFRESTAGE-6ffacc2d-7f2b-5c70-be5a-0f5749bab73e-attr-3-name" class="er entityLabel">description</text><rect height="21" width="34.921875" y="87" x="0" class="er attributeBoxEven"/><text style="dominant-baseline: middle; font-size: 10.2px;" transform="translate(5,97.5)" y="0" x="0" id="text-entity-OFFRESTAGE-6ffacc2d-7f2b-5c70-be5a-0f5749bab73e-attr-4-type" class="er entityLabel">date</text><rect height="21" width="114.765625" y="87" x="34.921875" class="er attributeBoxEven"/><text style="dominant-baseline: middle; font-size: 10.2px;" transform="translate(39.921875,97.5)" y="0" x="0" id="text-entity-OFFRESTAGE-6ffacc2d-7f2b-5c70-be5a-0f5749bab73e-attr-4-name" class="er entityLabel">date_debut</text><rect height="21" width="34.921875" y="108" x="0" class="er attributeBoxOdd"/><text style="dominant-baseline: middle; font-size: 10.2px;" transform="translate(5,118.5)" y="0" x="0" id="text-entity-OFFRESTAGE-6ffacc2d-7f2b-5c70-be5a-0f5749bab73e-attr-5-type" class="er entityLabel">date</text><rect height="21" width="114.765625" y="108" x="34.921875" class="er attributeBoxOdd"/><text style="dominant-baseline: middle; font-size: 10.2px;" transform="translate(39.921875,118.5)" y="0" x="0" id="text-entity-OFFRESTAGE-6ffacc2d-7f2b-5c70-be5a-0f5749bab73e-attr-5-name" class="er entityLabel">date_fin</text><rect height="21" width="34.921875" y="129" x="0" class="er attributeBoxEven"/><text style="dominant-baseline: middle; font-size: 10.2px;" transform="translate(5,139.5)" y="0" x="0" id="text-entity-OFFRESTAGE-6ffacc2d-7f2b-5c70-be5a-0f5749bab73e-attr-6-type" class="er entityLabel">string</text><rect height="21" width="114.765625" y="129" x="34.921875" class="er attributeBoxEven"/><text style="dominant-baseline: middle; font-size: 10.2px;" transform="translate(39.921875,139.5)" y="0" x="0" id="text-entity-OFFRESTAGE-6ffacc2d-7f2b-5c70-be5a-0f5749bab73e-attr-6-name" class="er entityLabel">competences_requises</text><rect height="21" width="34.921875" y="150" x="0" class="er attributeBoxOdd"/><text style="dominant-baseline: middle; font-size: 10.2px;" transform="translate(5,160.5)" y="0" x="0" id="text-entity-OFFRESTAGE-6ffacc2d-7f2b-5c70-be5a-0f5749bab73e-attr-7-type" class="er entityLabel">float</text><rect height="21" width="114.765625" y="150" x="34.921875" class="er attributeBoxOdd"/><text style="dominant-baseline: middle; font-size: 10.2px;" transform="translate(39.921875,160.5)" y="0" x="0" id="text-entity-OFFRESTAGE-6ffacc2d-7f2b-5c70-be5a-0f5749bab73e-attr-7-name" class="er entityLabel">remuneration</text></g><g transform="translate(324.63014221191406,249 )" id="entity-TUTEURPEDAGOGIQUE-7be29147-7753-54b2-ab64-435dd3d96a66"><rect height="129" width="175.359375" y="0" x="0" class="er entityBox"/><text style="dominant-baseline: middle; text-anchor: middle; font-size: 12px;" transform="translate(87.6796875,12)" y="0" x="0" id="text-entity-TUTEURPEDAGOGIQUE-7be29147-7753-54b2-ab64-435dd3d96a66" class="er entityLabel">TUTEUR_PEDAGOGIQUE</text><rect height="21" width="78.73796081542969" y="24" x="0" class="er attributeBoxOdd"/><text style="dominant-baseline: middle; font-size: 10.2px;" transform="translate(5,34.5)" y="0" x="0" id="text-entity-TUTEURPEDAGOGIQUE-7be29147-7753-54b2-ab64-435dd3d96a66-attr-1-type" class="er entityLabel">string</text><rect height="21" width="96.62141418457031" y="24" x="78.73796081542969" class="er attributeBoxOdd"/><text style="dominant-baseline: middle; font-size: 10.2px;" transform="translate(83.73796081542969,34.5)" y="0" x="0" id="text-entity-TUTEURPEDAGOGIQUE-7be29147-7753-54b2-ab64-435dd3d96a66-attr-1-name" class="er entityLabel">id</text><rect height="21" width="78.73796081542969" y="45" x="0" class="er attributeBoxEven"/><text style="dominant-baseline: middle; font-size: 10.2px;" transform="translate(5,55.5)" y="0" x="0" id="text-entity-TUTEURPEDAGOGIQUE-7be29147-7753-54b2-ab64-435dd3d96a66-attr-2-type" class="er entityLabel">string</text><rect height="21" width="96.62141418457031" y="45" x="78.73796081542969" class="er attributeBoxEven"/><text style="dominant-baseline: middle; font-size: 10.2px;" transform="translate(83.73796081542969,55.5)" y="0" x="0" id="text-entity-TUTEURPEDAGOGIQUE-7be29147-7753-54b2-ab64-435dd3d96a66-attr-2-name" class="er entityLabel">nom</text><rect height="21" width="78.73796081542969" y="66" x="0" class="er attributeBoxOdd"/><text style="dominant-baseline: middle; font-size: 10.2px;" transform="translate(5,76.5)" y="0" x="0" id="text-entity-TUTEURPEDAGOGIQUE-7be29147-7753-54b2-ab64-435dd3d96a66-attr-3-type" class="er entityLabel">string</text><rect height="21" width="96.62141418457031" y="66" x="78.73796081542969" class="er attributeBoxOdd"/><text style="dominant-baseline: middle; font-size: 10.2px;" transform="translate(83.73796081542969,76.5)" y="0" x="0" id="text-entity-TUTEURPEDAGOGIQUE-7be29147-7753-54b2-ab64-435dd3d96a66-attr-3-name" class="er entityLabel">prenom</text><rect height="21" width="78.73796081542969" y="87" x="0" class="er attributeBoxEven"/><text style="dominant-baseline: middle; font-size: 10.2px;" transform="translate(5,97.5)" y="0" x="0" id="text-entity-TUTEURPEDAGOGIQUE-7be29147-7753-54b2-ab64-435dd3d96a66-attr-4-type" class="er entityLabel">string</text><rect height="21" width="96.62141418457031" y="87" x="78.73796081542969" class="er attributeBoxEven"/><text style="dominant-baseline: middle; font-size: 10.2px;" transform="translate(83.73796081542969,97.5)" y="0" x="0" id="text-entity-TUTEURPEDAGOGIQUE-7be29147-7753-54b2-ab64-435dd3d96a66-attr-4-name" class="er entityLabel">email</text><rect height="21" width="78.73796081542969" y="108" x="0" class="er attributeBoxOdd"/><text style="dominant-baseline: middle; font-size: 10.2px;" transform="translate(5,118.5)" y="0" x="0" id="text-entity-TUTEURPEDAGOGIQUE-7be29147-7753-54b2-ab64-435dd3d96a66-attr-5-type" class="er entityLabel">string</text><rect height="21" width="96.62141418457031" y="108" x="78.73796081542969" class="er attributeBoxOdd"/><text style="dominant-baseline: middle; font-size: 10.2px;" transform="translate(83.73796081542969,118.5)" y="0" x="0" id="text-entity-TUTEURPEDAGOGIQUE-7be29147-7753-54b2-ab64-435dd3d96a66-attr-5-name" class="er entityLabel">specialite</text></g><g transform="translate(599.9895172119141,249 )" id="entity-TUTEURENTREPRISE-5e0e534b-da26-5269-9a12-31c638489c82"><rect height="129" width="162.03125" y="0" x="0" class="er entityBox"/><text style="dominant-baseline: middle; text-anchor: middle; font-size: 12px;" transform="translate(81.015625,12)" y="0" x="0" id="text-entity-TUTEURENTREPRISE-5e0e534b-da26-5269-9a12-31c638489c82" class="er entityLabel">TUTEUR_ENTREPRISE</text><rect height="21" width="75.6328125" y="24" x="0" class="er attributeBoxOdd"/><text style="dominant-baseline: middle; font-size: 10.2px;" transform="translate(5,34.5)" y="0" x="0" id="text-entity-TUTEURENTREPRISE-5e0e534b-da26-5269-9a12-31c638489c82-attr-1-type" class="er entityLabel">string</text><rect height="21" width="86.3984375" y="24" x="75.6328125" class="er attributeBoxOdd"/><text style="dominant-baseline: middle; font-size: 10.2px;" transform="translate(80.6328125,34.5)" y="0" x="0" id="text-entity-TUTEURENTREPRISE-5e0e534b-da26-5269-9a12-31c638489c82-attr-1-name" class="er entityLabel">id</text><rect height="21" width="75.6328125" y="45" x="0" class="er attributeBoxEven"/><text style="dominant-baseline: middle; font-size: 10.2px;" transform="translate(5,55.5)" y="0" x="0" id="text-entity-TUTEURENTREPRISE-5e0e534b-da26-5269-9a12-31c638489c82-attr-2-type" class="er entityLabel">string</text><rect height="21" width="86.3984375" y="45" x="75.6328125" class="er attributeBoxEven"/><text style="dominant-baseline: middle; font-size: 10.2px;" transform="translate(80.6328125,55.5)" y="0" x="0" id="text-entity-TUTEURENTREPRISE-5e0e534b-da26-5269-9a12-31c638489c82-attr-2-name" class="er entityLabel">nom</text><rect height="21" width="75.6328125" y="66" x="0" class="er attributeBoxOdd"/><text style="dominant-baseline: middle; font-size: 10.2px;" transform="translate(5,76.5)" y="0" x="0" id="text-entity-TUTEURENTREPRISE-5e0e534b-da26-5269-9a12-31c638489c82-attr-3-type" class="er entityLabel">string</text><rect height="21" width="86.3984375" y="66" x="75.6328125" class="er attributeBoxOdd"/><text style="dominant-baseline: middle; font-size: 10.2px;" transform="translate(80.6328125,76.5)" y="0" x="0" id="text-entity-TUTEURENTREPRISE-5e0e534b-da26-5269-9a12-31c638489c82-attr-3-name" class="er entityLabel">prenom</text><rect height="21" width="75.6328125" y="87" x="0" class="er attributeBoxEven"/><text style="dominant-baseline: middle; font-size: 10.2px;" transform="translate(5,97.5)" y="0" x="0" id="text-entity-TUTEURENTREPRISE-5e0e534b-da26-5269-9a12-31c638489c82-attr-4-type" class="er entityLabel">string</text><rect height="21" width="86.3984375" y="87" x="75.6328125" class="er attributeBoxEven"/><text style="dominant-baseline: middle; font-size: 10.2px;" transform="translate(80.6328125,97.5)" y="0" x="0" id="text-entity-TUTEURENTREPRISE-5e0e534b-da26-5269-9a12-31c638489c82-attr-4-name" class="er entityLabel">email</text><rect height="21" width="75.6328125" y="108" x="0" class="er attributeBoxOdd"/><text style="dominant-baseline: middle; font-size: 10.2px;" transform="translate(5,118.5)" y="0" x="0" id="text-entity-TUTEURENTREPRISE-5e0e534b-da26-5269-9a12-31c638489c82-attr-5-type" class="er entityLabel">string</text><rect height="21" width="86.3984375" y="108" x="75.6328125" class="er attributeBoxOdd"/><text style="dominant-baseline: middle; font-size: 10.2px;" transform="translate(80.6328125,118.5)" y="0" x="0" id="text-entity-TUTEURENTREPRISE-5e0e534b-da26-5269-9a12-31c638489c82-attr-5-name" class="er entityLabel">fonction</text></g><g transform="translate(21.9541015625,20 )" id="entity-FORMATION-5df2b536-c77e-54f5-ba16-b034cb365bb6"><rect height="129" width="101.109375" y="0" x="0" class="er entityBox"/><text style="dominant-baseline: middle; text-anchor: middle; font-size: 12px;" transform="translate(50.5546875,12)" y="0" x="0" id="text-entity-FORMATION-5df2b536-c77e-54f5-ba16-b034cb365bb6" class="er entityLabel">FORMATION</text><rect height="21" width="36.3984375" y="24" x="0" class="er attributeBoxOdd"/><text style="dominant-baseline: middle; font-size: 10.2px;" transform="translate(5,34.5)" y="0" x="0" id="text-entity-FORMATION-5df2b536-c77e-54f5-ba16-b034cb365bb6-attr-1-type" class="er entityLabel">string</text><rect height="21" width="64.7109375" y="24" x="36.3984375" class="er attributeBoxOdd"/><text style="dominant-baseline: middle; font-size: 10.2px;" transform="translate(41.3984375,34.5)" y="0" x="0" id="text-entity-FORMATION-5df2b536-c77e-54f5-ba16-b034cb365bb6-attr-1-name" class="er entityLabel">id</text><rect height="21" width="36.3984375" y="45" x="0" class="er attributeBoxEven"/><text style="dominant-baseline: middle; font-size: 10.2px;" transform="translate(5,55.5)" y="0" x="0" id="text-entity-FORMATION-5df2b536-c77e-54f5-ba16-b034cb365bb6-attr-2-type" class="er entityLabel">string</text><rect height="21" width="64.7109375" y="45" x="36.3984375" class="er attributeBoxEven"/><text style="dominant-baseline: middle; font-size: 10.2px;" transform="translate(41.3984375,55.5)" y="0" x="0" id="text-entity-FORMATION-5df2b536-c77e-54f5-ba16-b034cb365bb6-attr-2-name" class="er entityLabel">nom</text><rect height="21" width="36.3984375" y="66" x="0" class="er attributeBoxOdd"/><text style="dominant-baseline: middle; font-size: 10.2px;" transform="translate(5,76.5)" y="0" x="0" id="text-entity-FORMATION-5df2b536-c77e-54f5-ba16-b034cb365bb6-attr-3-type" class="er entityLabel">string</text><rect height="21" width="64.7109375" y="66" x="36.3984375" class="er attributeBoxOdd"/><text style="dominant-baseline: middle; font-size: 10.2px;" transform="translate(41.3984375,76.5)" y="0" x="0" id="text-entity-FORMATION-5df2b536-c77e-54f5-ba16-b034cb365bb6-attr-3-name" class="er entityLabel">niveau</text><rect height="21" width="36.3984375" y="87" x="0" class="er attributeBoxEven"/><text style="dominant-baseline: middle; font-size: 10.2px;" transform="translate(5,97.5)" y="0" x="0" id="text-entity-FORMATION-5df2b536-c77e-54f5-ba16-b034cb365bb6-attr-4-type" class="er entityLabel">string</text><rect height="21" width="64.7109375" y="87" x="36.3984375" class="er attributeBoxEven"/><text style="dominant-baseline: middle; font-size: 10.2px;" transform="translate(41.3984375,97.5)" y="0" x="0" id="text-entity-FORMATION-5df2b536-c77e-54f5-ba16-b034cb365bb6-attr-4-name" class="er entityLabel">specialite</text><rect height="21" width="36.3984375" y="108" x="0" class="er attributeBoxOdd"/><text style="dominant-baseline: middle; font-size: 10.2px;" transform="translate(5,118.5)" y="0" x="0" id="text-entity-FORMATION-5df2b536-c77e-54f5-ba16-b034cb365bb6-attr-5-type" class="er entityLabel">int</text><rect height="21" width="64.7109375" y="108" x="36.3984375" class="er attributeBoxOdd"/><text style="dominant-baseline: middle; font-size: 10.2px;" transform="translate(41.3984375,118.5)" y="0" x="0" id="text-entity-FORMATION-5df2b536-c77e-54f5-ba16-b034cb365bb6-attr-5-name" class="er entityLabel">duree_mois</text></g><rect height="14" width="72.484375" y="423.06243896484375" x="210.7374725341797" class="er relationshipLabelBox"/><text style="text-anchor: middle; dominant-baseline: middle; font-size: 12px;" y="430.06243896484375" x="246.9796600341797" id="rel1" class="er relationshipLabel">effectue (1,N)</text><rect height="14" width="69.359375" y="712.3770751953125" x="7.397315979003906" class="er relationshipLabelBox"/><text style="text-anchor: middle; dominant-baseline: middle; font-size: 12px;" y="719.3770751953125" x="42.077003479003906" id="rel2" class="er relationshipLabel">soumet (1,N)</text><rect height="14" width="73.375" y="669.3062744140625" x="175.50315856933594" class="er relationshipLabelBox"/><text style="text-anchor: middle; dominant-baseline: middle; font-size: 12px;" y="676.3062744140625" x="212.19065856933594" id="rel3" class="er relationshipLabel">propose (1,N)</text><rect height="14" width="59.34765625" y="946.7258911132812" x="260.74847412109375" class="er relationshipLabelBox"/><text style="text-anchor: middle; dominant-baseline: middle; font-size: 12px;" y="953.7258911132812" x="290.42230224609375" id="rel4" class="er relationshipLabel">reçoit (1,N)</text><rect height="14" width="98.0625" y="685.6598510742188" x="373.5584716796875" class="er relationshipLabelBox"/><text style="text-anchor: middle; dominant-baseline: middle; font-size: 12px;" y="692.6598510742188" x="422.5897216796875" id="rel5" class="er relationshipLabel">correspond à (1,1)</text><rect height="14" width="81.361328125" y="421.47216796875" x="373.68994140625" class="er relationshipLabelBox"/><text style="text-anchor: middle; dominant-baseline: middle; font-size: 12px;" y="428.47216796875" x="414.37060546875" id="rel6" class="er relationshipLabel">supervise (1,N)</text><rect height="14" width="73.375" y="454.16497802734375" x="577.0077514648438" class="er relationshipLabelBox"/><text style="text-anchor: middle; dominant-baseline: middle; font-size: 12px;" y="461.16497802734375" x="613.6952514648438" id="rel7" class="er relationshipLabel">encadre (1,N)</text><rect height="14" width="83.375" y="192" x="30.821502685546875" class="er relationshipLabelBox"/><text style="text-anchor: middle; dominant-baseline: middle; font-size: 12px;" y="199" x="72.50900268554688" id="rel8" class="er relationshipLabel">comprend (1,N)</text></svg>
